<svg width="400" height="400" viewBox="0 0 100 100" xmlns="http://www.w3.org/2000/svg">
  <path d="M 10 50 L 16 46 L 22 43 L 27 45 L 32 38 L 38 28 L 44 14 L 49 20 L 54 25 L 60 22 L 66 31 L 73 39 L 82 44 L 90 50 Z" fill="#818cf8" opacity="0.22"/>
  <path d="M 10 50 L 16 46 L 22 43 L 27 45 L 32 38 L 38 28 L 44 14 L 49 20 L 54 25 L 60 22 L 66 31 L 73 39 L 82 44 L 90 50" fill="none" stroke="#818cf8" stroke-width="2.2" stroke-linecap="round" stroke-linejoin="round"/>
  <circle cx="44" cy="14" r="3.4" fill="#818cf8"/>
  <circle cx="44" cy="14" r="1.5" fill="#f8fafc" opacity="0.9"/>
  <line x1="10" y1="50" x2="90" y2="50" stroke="#818cf8" stroke-width="3.5" opacity="0.05" stroke-linecap="round"/>
  <line x1="10" y1="50" x2="90" y2="50" stroke="#818cf8" stroke-width="1.2" opacity="0.55" stroke-linecap="round"/>
  <path d="M 10 50 L 16 54 L 22 57 L 27 55 L 32 62 L 38 72 L 44 86 L 49 80 L 54 75 L 60 78 L 66 69 L 73 61 L 82 56 L 90 50 Z" fill="#818cf8" opacity="0.09"/>
  <path d="M 10 50 L 16 54 L 22 57 L 27 55 L 32 62 L 38 72 L 44 86 L 49 80 L 54 75 L 60 78 L 66 69 L 73 61 L 82 56 L 90 50" fill="none" stroke="#818cf8" stroke-width="1.4" stroke-linecap="round" stroke-linejoin="round" opacity="0.36" stroke-dasharray="3,2.5"/>
  <line x1="34" y1="54" x2="66" y2="54" stroke="#818cf8" stroke-width="1" opacity="0.22" stroke-linecap="round"/>
  <line x1="40" y1="58" x2="60" y2="58" stroke="#818cf8" stroke-width="0.9" opacity="0.14" stroke-linecap="round"/>
  <line x1="44" y1="62" x2="56" y2="62" stroke="#818cf8" stroke-width="0.7" opacity="0.08" stroke-linecap="round"/>
</svg>