<svg width="500" height="500" viewBox="0 0 80 80" xmlns="http://www.w3.org/2000/svg">
  <defs>
    <linearGradient id="ga" x1="0%" y1="0%" x2="100%" y2="100%"><stop offset="0%" stop-color="#c7d2fe"/><stop offset="100%" stop-color="#3730a3"/></linearGradient>
    <linearGradient id="gb" x1="100%" y1="0%" x2="0%" y2="100%"><stop offset="0%" stop-color="#818cf8"/><stop offset="100%" stop-color="#4f46e5"/></linearGradient>
    <linearGradient id="gc" x1="0%" y1="100%" x2="100%" y2="0%"><stop offset="0%" stop-color="#4338ca"/><stop offset="100%" stop-color="#a5b4fc"/></linearGradient>
  </defs>
  <polygon points="40,4 70,22 70,58 40,76 10,58 10,22" fill="url(#ga)" opacity="0.35"/>
  <polygon points="40,10 66,26 66,54 40,70 14,54 14,26" fill="url(#gb)" opacity="0.7"/>
  <polygon points="40,16 60,28 60,52 40,64 20,52 20,28" fill="url(#gc)"/>
  <polygon points="40,28 52,35 52,45 40,52 28,45 28,35" fill="#eef0ff" opacity="0.8"/>
  <circle cx="40" cy="40" r="4" fill="#818cf8"/>
  <circle cx="28" cy="28" r="2" fill="#a5b4fc"/>
  <circle cx="52" cy="28" r="2" fill="#a5b4fc"/>
  <line x1="30" y1="29.5" x2="37" y2="37" stroke="#c7d2fe" stroke-width="0.8" opacity="0.8"/>
  <line x1="50" y1="29.5" x2="43" y2="37" stroke="#c7d2fe" stroke-width="0.8" opacity="0.8"/>
</svg>